# xmcd
#
# Track frame offsets:
#	150
#	12376
#	34214
#	57945
#	81082
#	95545
#	119350
#	141863
#	159338
#	178993
#	198085
#	213230
#
# Disc length: 3076 seconds
#
# Revision: 0
# Processed by: cddbd v1.5.2PL0 Copyright (c) Steve Scherf et al.
# Submitted via: audiograbber 1.83.01
#
DISCID=a10c020c
DTITLE=Ladysmith Black Mambazo - Ilembe: Honoring Shaka Zulu
DYEAR=2008
DGENRE=Folk
TTITLE0=Ommu Beno Mmu
TTITLE1=Kuyafundw' Osizini (Ilembe)
TTITLE2=Vela Nsizwa
TTITLE3=Lets Do It
TTITLE4=Umon' Usuk Esweni
TTITLE5=Sizobalanda
TTITLE6=This Is The Way We Do
TTITLE7=Iphel' Emasini
TTITLE8=Asekhon' Amatshitshi
TTITLE9=Hlala Nami
TTITLE10=Prince Of Peace
TTITLE11=Iphel' Emasini (Nature Effects)
EXTD=
EXTT0=
EXTT1=
EXTT2=
EXTT3=
EXTT4=
EXTT5=
EXTT6=
EXTT7=
EXTT8=
EXTT9=
EXTT10=
EXTT11=
PLAYORDER=
